<svg width="208" height="30" viewBox="0 0 208 30" fill="none" xmlns="http://www.w3.org/2000/svg">
<path d="M36.9847 16.7885C36.9732 16.5613 36.8167 16.3683 36.598 16.3097L33.2338 15.4077L32.7864 14.4743L34.1844 11.2773C34.2744 11.0707 34.223 10.8306 34.0557 10.6798L32.4576 9.24176C32.2882 9.09023 32.0431 9.0638 31.8487 9.17672L28.8275 10.9099L27.8548 10.5719L26.5826 7.32201C26.5004 7.11258 26.2946 6.97823 26.0694 6.99108L23.9309 7.1033C23.7058 7.11473 23.5135 7.26982 23.4542 7.48781L22.5415 10.8499L21.6074 11.2973L18.4211 9.90357C18.2139 9.8121 17.9744 9.86497 17.8236 10.0322L16.3856 11.6303C16.2348 11.7983 16.2083 12.0442 16.3213 12.24L18.0531 15.2576L17.7079 16.2282L14.4544 17.5004C14.2436 17.5819 14.1099 17.7905 14.1235 18.0164L14.2479 20.1591C14.2607 20.3836 14.4151 20.5737 14.6317 20.6323L17.9937 21.5471L18.4405 22.4791L17.0367 25.6611C16.9453 25.8669 16.9974 26.1085 17.1647 26.2586L18.7628 27.6966C18.9308 27.8481 19.1766 27.871 19.3717 27.7624L22.3907 26.0299L23.3713 26.3801L24.6328 29.6278C24.7114 29.8293 24.9051 29.9609 25.1195 29.9609C25.1288 29.9609 25.1388 29.9609 25.1489 29.9609L27.303 29.8408C27.5282 29.8279 27.7197 29.6721 27.7783 29.4548L28.6803 26.0899L29.6123 25.6425L32.805 27.0505C33.0101 27.1405 33.251 27.0905 33.4039 26.9218L34.8419 25.3237C34.9928 25.1565 35.0192 24.9106 34.907 24.7148L33.1738 21.6958L33.5147 20.7109L36.7603 19.4501C36.9704 19.3686 37.1041 19.1628 37.0933 18.9384L36.9847 16.7885ZM29.9346 19.4816L29.6594 20.3021L29.2142 21.0683L28.651 21.7144L27.9505 22.2462L27.1758 22.6278L26.3381 22.8565L25.4683 22.9166L24.602 22.8008L23.7808 22.5264L23.0146 22.0818L22.3671 21.5014L21.8418 20.8239L21.4551 20.0434L21.23 19.1886L21.1714 18.3252L21.2857 17.4575L21.5609 16.637L22.0026 15.8808L22.5673 15.2276L23.2698 14.693L24.0446 14.3113L24.8987 14.0855L25.7671 14.0383L26.6255 14.1534L27.4467 14.4285C27.4781 14.44 27.5082 14.4528 27.5375 14.47L28.2 14.8545L28.8626 15.4392L29.39 16.1367L29.7724 16.9115L30.0011 17.7506L30.0497 18.6225L29.9346 19.4816Z" fill="#0058A6"/>
<path d="M16.6097 0H0.63054L0.1315 0.49904V29.4617L0.63054 29.9608H6.62256L7.12161 29.4617V17.9754H12.6153L13.1143 17.4763V11.4843L12.6153 10.9852H7.12161V6.99011H16.6097L17.1088 6.49106V0.49904L16.6097 0Z" fill="#DC001E"/>
<path d="M46.4739 29.4963H49.3419V16.3967H60.5811V13.8H49.3419V3.45214H61.0074V0.855469H46.4739V29.4963Z" fill="black"/>
<path d="M64.3403 29.4964H67.2083V17.1332C67.2083 13.1801 69.2236 11.0097 73.2155 10.6222V7.79297C70.1538 7.94824 68.3323 8.99441 67.2083 11.3198V8.29682H64.3403V29.4964Z" fill="black"/>
<path d="M96.1589 19.8461C96.1589 17.0169 95.81 15.3504 94.88 13.5676C93.0197 10.0021 89.2604 7.79297 85.0748 7.79297C78.9514 7.79297 74.1068 12.6375 74.1068 18.7998C74.1068 25.0782 79.0288 30.0003 85.3074 30.0003C89.9193 30.0003 94.0663 26.9773 95.6166 22.5203H92.6323C91.4309 25.427 88.4467 27.3649 85.2299 27.3649C80.8504 27.3649 77.2073 24.0318 76.9748 19.8462L96.1589 19.8461ZM77.0522 17.2495C77.8273 13.1801 81.044 10.4284 85.0746 10.4284C89.1828 10.4284 92.3221 13.025 93.2909 17.2495H77.0522Z" fill="black"/>
<path d="M121.351 19.8461C121.351 17.0169 121.002 15.3504 120.072 13.5676C118.211 10.0021 114.452 7.79297 110.266 7.79297C104.143 7.79297 99.2984 12.6375 99.2984 18.7998C99.2984 25.0782 104.22 30.0003 110.499 30.0003C115.111 30.0003 119.258 26.9773 120.808 22.5203H117.824C116.623 25.427 113.638 27.3649 110.421 27.3649C106.042 27.3649 102.399 24.0318 102.166 19.8462L121.351 19.8461ZM102.244 17.2495C103.019 13.1801 106.236 10.4284 110.266 10.4284C114.374 10.4284 117.514 13.025 118.482 17.2495H102.244Z" fill="black"/>
<path d="M146.905 21.5125C144.541 23.9541 142.565 24.8842 139.813 24.8842C134.503 24.8842 130.201 20.466 130.201 15.1177C130.201 12.7923 131.093 10.3119 132.565 8.60667C134.309 6.55256 136.751 5.46741 139.697 5.46741C143.03 5.46741 145.277 6.55256 147.215 9.07175H153.145C152.06 6.66882 151.13 5.3899 149.308 3.83963C146.634 1.59177 143.185 0.351562 139.58 0.351562C131.48 0.351562 124.853 6.97886 124.853 15.0789C124.853 23.3727 131.558 30 139.929 30C145.82 30 150.897 26.7445 153.145 21.5124L146.905 21.5125Z" fill="black"/>
<path d="M153.765 29.4963H159.617L162.795 22.0938H172.988L176.05 29.4963H181.902L169.888 0.855469H165.702L153.765 29.4963ZM164.733 17.0168L167.795 8.33545L170.856 17.0168H164.733Z" fill="black"/>
<path d="M184.925 29.4962H191.591C195.815 29.4962 198.335 29.0699 200.621 28.0235C205.156 25.8919 207.868 21.1637 207.868 15.234C207.868 9.92437 205.737 5.54492 201.939 3.10333C199.613 1.59184 196.164 0.855469 191.475 0.855469H184.925L184.925 29.4962ZM190.234 24.4192V5.93253H191.281C194.575 5.93253 196.319 6.20359 197.947 6.97893C200.776 8.37415 202.52 11.4747 202.52 15.234C202.52 18.6833 200.931 21.745 198.373 23.1402C196.784 23.9929 194.575 24.4192 191.397 24.4192H190.234Z" fill="black"/>
</svg>
