<svg width="177" height="54" viewBox="0 0 177 54" fill="none" xmlns="http://www.w3.org/2000/svg">
<path fill-rule="evenodd" clip-rule="evenodd" d="M0.565948 24.4995C0.565948 24.8592 0.902524 25.1834 1.27586 25.1834H4.74844C5.12178 25.1834 5.45835 24.8592 5.45835 24.4995V0.683863C5.45835 0.324226 5.12178 0 4.74844 0H1.27586C0.902524 0 0.565948 0.324226 0.565948 0.683863V24.4995ZM13.7854 24.4995C13.7854 24.8592 14.0841 25.1834 14.4965 25.1834H17.9312C18.3045 25.1834 18.6411 24.8592 18.6411 24.4995V15.398H27.8653C28.2386 15.398 28.5752 15.0749 28.5752 14.7141V11.764C28.5752 11.4055 28.2386 11.0801 27.8653 11.0801H18.6411V4.31785H29.6952C30.1053 4.31785 30.404 3.99363 30.404 3.63399V0.683863C30.404 0.324226 30.1053 0 29.6952 0H14.4965C14.0841 0 13.7854 0.324226 13.7854 0.683863V24.4995ZM48.741 12.2686C50.6835 11.3324 52.4755 9.35387 52.4755 6.65604C52.4755 2.8782 49.0408 0 44.5964 0H36.0442C35.6341 0 35.3343 0.324226 35.3343 0.683863V24.4995C35.3343 24.8592 35.6341 25.1834 36.0442 25.1834H45.0812C49.637 25.1834 53.2222 22.2698 53.2222 18.2408C53.2222 14.8591 50.9075 13.1682 48.741 12.449V12.2686ZM40.1509 10.5766V4.28133H44.2219C46.1277 4.28133 47.3591 5.54062 47.3591 7.33991C47.3591 9.13809 46.1277 10.5766 44.2219 10.5766H40.1509ZM40.1509 20.9375V14.536H44.7458C46.6124 14.536 48.0322 15.865 48.0322 17.6653C48.0322 19.5343 46.6124 20.9375 44.7458 20.9375H40.1509Z" fill="#15415A"/>
<path fill-rule="evenodd" clip-rule="evenodd" d="M0.565948 52.9258C0.565948 53.2279 0.855053 53.499 1.17489 53.499H2.42805C2.78204 53.499 3.03699 53.2279 3.03699 52.9258V43.7738H16.0672V52.9258C16.0672 53.2279 16.3255 53.499 16.6784 53.499H17.9281C18.2503 53.499 18.5382 53.2279 18.5382 52.9258V32.9281C18.5382 32.627 18.2503 32.3539 17.9281 32.3539H16.6784C16.3255 32.3539 16.0672 32.627 16.0672 32.9281V41.7491H3.03699V32.9281C3.03699 32.627 2.78204 32.3539 2.42805 32.3539H1.17489C0.855053 32.3539 0.565948 32.627 0.565948 32.9281V52.9258ZM22.8395 53.499H24.1223C24.4102 53.499 24.6026 53.3179 24.6663 53.1669L27.0099 48.1832H38.4033L40.7776 53.1669C40.8425 53.3179 41.0349 53.499 41.324 53.499H42.6079C43.0893 53.499 43.3454 53.1058 43.1531 52.7137L33.4612 32.3849C33.3656 32.2039 33.2029 32.0518 32.9149 32.0518H32.5939C32.3048 32.0518 32.1443 32.2039 32.0487 32.3849L22.292 52.7137C22.0985 53.1058 22.3569 53.499 22.8395 53.499ZM27.9091 46.3106L32.5939 36.4023H32.8523C34.423 39.6943 35.9642 43.0175 37.536 46.3106H27.9091ZM45.6036 52.7748C45.508 53.1979 45.7004 53.499 46.1807 53.499H47.4635C47.7218 53.499 48.0109 53.2879 48.0417 53.0769L50.8337 37.5196H50.9634L56.9333 53.47C56.9971 53.65 57.285 53.8011 57.4785 53.8011H58.0556C58.248 53.8011 58.5371 53.65 58.6019 53.47L64.5069 37.5196H64.6344L67.4913 53.0769C67.5551 53.2879 67.8123 53.499 68.0684 53.499H69.3534C69.836 53.499 70.0272 53.1979 69.9316 52.7748L65.7908 32.476C65.726 32.2339 65.4699 32.0518 65.2115 32.0518H64.6982C64.4751 32.0518 64.2167 32.2039 64.1541 32.3849L57.8951 49.0285H57.7346L51.3812 32.3849C51.3151 32.2039 51.059 32.0518 50.8337 32.0518H50.3203C50.0643 32.0518 49.807 32.2339 49.7444 32.476L45.6036 52.7748ZM77.3391 41.8401V34.4397H82.2186C84.8501 34.4397 86.422 35.8891 86.422 38.0638C86.422 40.1775 84.8501 41.8401 82.2186 41.8401H77.3391ZM77.2742 51.4753V43.9238H82.7968C85.2348 43.9238 87.1607 45.4932 87.1607 47.639C87.1607 49.8137 85.5228 51.4753 82.9243 51.4753H77.2742ZM86.0361 42.7154C87.5135 41.8691 89.1502 40.3596 89.1502 37.9128C89.1502 34.7407 86.5494 32.3539 82.6351 32.3539H75.543C75.189 32.3539 74.9329 32.627 74.9329 32.9281V52.9258C74.9329 53.2279 75.189 53.499 75.543 53.499H83.0836C87.0639 53.499 89.8571 51.0511 89.8571 47.669C89.8571 44.9201 87.7377 43.4406 86.0361 42.7754V42.7154ZM94.3405 45.8275C94.3405 50.419 97.7756 53.8011 102.814 53.8011C107.885 53.8011 111.35 50.419 111.35 45.8275V32.9281C111.35 32.627 111.061 32.3539 110.741 32.3539H109.521C109.168 32.3539 108.911 32.627 108.911 32.9281V45.7053C108.911 49.1495 106.601 51.6563 102.814 51.6563C99.0595 51.6563 96.7796 49.0895 96.7796 45.6453V32.9281C96.7796 32.627 96.5224 32.3539 96.1707 32.3539H94.9517C94.6296 32.3539 94.3405 32.627 94.3405 32.9281V45.8275ZM116.928 52.9258C116.928 53.2279 117.183 53.499 117.537 53.499H118.789C119.109 53.499 119.398 53.2279 119.398 52.9258V45.2222H125.528L129.7 53.0469C129.86 53.349 130.022 53.499 130.407 53.499H131.947C132.493 53.499 132.716 53.0158 132.493 52.6216L128.095 44.9511C130.888 43.8938 132.845 41.568 132.845 38.788C132.845 35.1938 129.7 32.3539 125.849 32.3539H117.537C117.183 32.3539 116.928 32.627 116.928 32.9281V52.9258ZM119.462 43.2296V34.5607H125.687C128.159 34.5607 130.311 36.5233 130.311 38.8191C130.311 41.2959 128.159 43.2296 125.687 43.2296H119.462ZM136.477 42.9564C136.477 48.9985 141.644 53.8011 148.062 53.8011C152.716 53.8011 155.989 51.8085 155.989 51.8085C156.118 51.7174 156.245 51.4753 156.245 51.3242V44.4069C156.245 44.1048 155.989 43.8327 155.669 43.8327H150.116C149.763 43.8327 149.507 44.0748 149.507 44.4069V45.5243C149.507 45.8275 149.763 46.0696 150.116 46.0696H153.806V50.2969C153.806 50.2969 151.561 51.5653 148.031 51.5653C142.96 51.5653 139.108 47.488 139.108 42.8364C139.108 38.1538 142.96 34.1676 148.031 34.1676C150.181 34.1676 152.493 35.1628 154.128 36.5233C154.481 36.8244 154.674 36.8565 154.962 36.5522C155.219 36.2801 155.573 35.9791 155.86 35.707C156.118 35.466 156.086 35.1028 155.83 34.8617C153.647 33.1102 151.304 32.0518 148.062 32.0518C141.644 32.0518 136.477 36.9143 136.477 42.9564Z" fill="#D5232E"/>
<path fill-rule="evenodd" clip-rule="evenodd" d="M175.986 0H175.425C174.948 0 174.56 0.184181 174.56 0.666558V24.5158C174.56 24.9981 174.948 25.1834 175.425 25.1834H175.986C176.462 25.1834 176.85 24.9981 176.85 24.5158V0.666558C176.85 0.184181 176.462 0 175.986 0Z" fill="#15415A"/>
<path fill-rule="evenodd" clip-rule="evenodd" d="M175.986 28.6177H175.425C174.948 28.6177 174.56 28.803 174.56 29.2842V53.1345C174.56 53.6158 174.948 53.8011 175.425 53.8011H175.986C176.462 53.8011 176.85 53.6158 176.85 53.1345V29.2842C176.85 28.803 176.462 28.6177 175.986 28.6177Z" fill="#D5232E"/>
</svg>
