<svg width="182" height="30" viewBox="0 0 182 30" fill="none" xmlns="http://www.w3.org/2000/svg">
<path d="M8.24723 0H0.0610352V8.18619H8.24723V0Z" fill="#0B1324"/>
<path d="M19.1782 0H10.992V8.18619H19.1782V0Z" fill="#0B1324"/>
<path d="M30.0611 0H21.8749V8.18619H30.0611V0Z" fill="#0B1324"/>
<path d="M8.24723 10.9312H0.0610352V19.1173H8.24723V10.9312Z" fill="#0B1324"/>
<path d="M19.1782 10.9312H10.992V30.0002H19.1782V10.9312Z" fill="#0B1324"/>
<path d="M30.0611 10.9312H21.8749V19.1173H30.0611V10.9312Z" fill="#0B1324"/>
<path d="M8.24723 21.814H0.0610352V30.0002H8.24723V21.814Z" fill="#0B1324"/>
<path d="M30.0611 21.814H21.8749V30.0002H30.0611V21.814Z" fill="#0B1324"/>
<path d="M87.7497 16.3722H90.9279L89.3388 11.4604L87.7497 16.3722Z" fill="#0B1324"/>
<path d="M32.8058 0V30H181.939V0H32.8058ZM47.6854 10.931H45.7111V19.1172H47.6854V21.862H40.992V19.1172H42.9663V10.931H40.992V8.1862H47.6854V10.931ZM61.8427 14.1091V21.8138H59.3868L54.0417 13.2905V21.8138H51.3451V8.1862H54.0417L59.1461 16.3242V8.23435H61.8909V14.1091H61.8427ZM80.1894 21.8138H77.4928V13.2905L73.8812 19.069H72.4847L68.825 13.2905V21.8138H66.0803V8.1862H68.825L73.1589 15.0722L77.4928 8.1862H80.1894V21.8138ZM92.6613 21.8138L91.7945 19.1172H86.8828L86.0161 21.8138H83.3194L87.7014 8.1862H91.0241L95.4061 21.8138H92.6613ZM108.215 12.8571H105.518V11.557L104.892 10.931H101.088L100.462 11.557V18.4912L101.088 19.1172H104.892L105.518 18.4912V17.1429H108.215V19.5987L106 21.8138H99.9326L97.7175 19.5987V10.4013L99.9326 8.1862H105.952L108.167 10.4013V12.8571H108.215ZM122.276 21.8138H119.579V16.3724H114.523V21.8138H111.778V8.1862H114.475V13.6758H119.531V8.1862H122.228V21.8138H122.276ZM132.629 10.931H130.655V19.1172H132.629V21.862H125.936V19.1172H127.91V10.931H125.936V8.1862H132.629V10.931ZM146.787 14.1091V21.8138H144.331L138.986 13.2905V21.8138H136.289V8.1862H138.986L144.09 16.3242V8.23435H146.835V14.1091H146.787ZM160.559 10.931H153.769V13.6758H159.162V16.3724H153.769V19.069H160.559V21.7656H151.072V8.1862H160.559V10.931ZM173.753 19.5987L171.538 21.8138H163.544V19.1172H170.382L171.008 18.4912V17.6244L165.133 15.1204L163.544 13.5313V10.4494L165.759 8.23435H172.356V10.9791H166.867L166.241 11.6051V12.4238L172.212 14.9759L173.753 16.5169V19.5987Z" fill="#0B1324"/>
</svg>
