<svg width="37" height="40" viewBox="0 0 37 40" fill="none" xmlns="http://www.w3.org/2000/svg">
<path d="M33.448 28.3578L27.8209 31.489L29.2327 34.0555L35.6119 30.5057C36.076 30.2474 36.3641 29.756 36.3641 29.2224V21.8895H33.448V28.3578Z" fill="#4F46E5"/>
<path d="M2.91611 21.8895H0V29.2224C0 29.756 0.288001 30.2474 0.752141 30.5057L7.13137 34.0555L8.54308 31.489L2.91611 28.3578L2.91611 21.8895Z" fill="#4F46E5"/>
<path d="M18.194 3.10165L24.0875 6.02613L25.3777 3.39562L18.8396 0.151277C18.4331 -0.0502967 17.9565 -0.0504154 17.5503 0.15086L11.0102 3.39133L12.2988 6.02261L18.194 3.10165Z" fill="#4F46E5"/>
<path d="M35.5511 8.44322L29.0131 5.19894L27.7229 7.82946L31.7663 9.83578L28.8087 11.4816C28.0124 10.791 26.9787 10.3703 25.8473 10.3703C23.3415 10.3703 21.303 12.4207 21.303 14.9411C21.303 15.1747 21.326 15.4024 21.3598 15.6267L18.1821 17.395L15.0261 15.6388C15.0788 15.361 15.109 15.0753 15.109 14.7822C15.109 12.2619 13.0704 10.2114 10.5647 10.2114C9.37205 10.2114 8.28858 10.6795 7.47714 11.438L4.59961 9.83673L8.6424 7.83374L7.35379 5.20246L0.813694 8.44299C0.315463 8.68968 0 9.206 0 9.76458V17.0915H2.91611V12.2519L6.0891 14.0176C6.04707 14.2668 6.02032 14.5212 6.02032 14.7822C6.02032 17.3027 8.05882 19.3531 10.5647 19.3531C11.7242 19.3531 12.7805 18.9102 13.5843 18.1885L16.7365 19.9427V23.4221C15.0021 24.0663 13.7599 25.7411 13.7599 27.7067C13.7599 29.6723 15.0021 31.347 16.7365 31.9913V36.0461L12.5212 33.7005L11.1095 36.2669L17.3055 39.7147C17.5495 39.8954 17.8498 40 18.1696 40H18.1946C18.5143 40 18.8146 39.8954 19.0587 39.7147L25.2547 36.2669L23.8429 33.7005L19.6526 36.0322V32.072C21.5021 31.4929 22.8486 29.7551 22.8486 27.7067C22.8486 25.6583 21.5021 23.9204 19.6526 23.3413V19.9287L22.7015 18.2321C23.5189 19.0227 24.6264 19.5119 25.8473 19.5119C28.3531 19.5119 30.3916 17.4615 30.3916 14.9411C30.3916 14.6207 30.358 14.3082 30.2954 14.0064L33.448 12.252V17.0915H36.3641V9.75851C36.3641 9.20022 36.0489 8.69034 35.5511 8.44322ZM10.5647 16.4199C9.66691 16.4199 8.93632 15.6852 8.93632 14.7822C8.93632 13.8793 9.66691 13.1445 10.5647 13.1445C11.4624 13.1445 12.1929 13.8793 12.1929 14.7822C12.1929 15.6852 11.4624 16.4199 10.5647 16.4199ZM18.3042 29.3444C17.4065 29.3444 16.676 28.6097 16.676 27.7067C16.676 26.8037 17.4065 26.069 18.3042 26.069C19.2021 26.069 19.9324 26.8037 19.9324 27.7067C19.9324 28.6097 19.2021 29.3444 18.3042 29.3444ZM25.8473 16.5788C24.9496 16.5788 24.2191 15.844 24.2191 14.9411C24.2191 14.0381 24.9496 13.3034 25.8473 13.3034C26.745 13.3034 27.4755 14.0381 27.4755 14.9411C27.4755 15.844 26.745 16.5788 25.8473 16.5788Z" fill="#4F46E5"/>
</svg>
