<svg width="168" height="40" viewBox="0 0 168 40" fill="none" xmlns="http://www.w3.org/2000/svg">
<path d="M12.3415 24.7258C17.2024 24.1729 13.309 16.4784 12.3875 13.9673C10.5445 16.801 6.48996 23.3436 12.3415 24.7258ZM10.0377 29.1951C14.7834 30.9459 19.5983 25.3939 19.8747 21.6849C20.1512 17.9759 16.1196 7.86242 12.1802 4.33769C7.71094 11.1107 -2.74806 25.1635 10.0377 29.1951ZM8.12562 18.5979C9.27749 16.5245 11.7886 12.4469 12.4336 10.696C24.2288 30.0475 4.16317 29.9784 8.12562 18.5979ZM19.1145 8.66873C17.7322 6.52625 13.0096 -1.67508 11.5121 0.306141C4.8543 9.0143 -5.00573 24.4724 3.7485 35.5765C11.6503 45.5056 24.344 37.143 24.2288 26.0159C24.1366 18.5518 21.6947 13.2532 19.1145 8.66873ZM7.48057 8.96822C8.65548 6.89485 12.4106 2.08002 12.4106 2.08002C12.4106 2.08002 15.8662 6.71055 17.3867 9.33682C20.036 13.8522 22.3628 22.353 19.7826 25.9007C11.5121 37.3964 -5.35129 27.6286 7.48057 8.96822ZM2.06677 26.2463C4.09406 36.3367 17.594 34.655 21.2339 27.1448C17.594 37.4425 2.11284 40.0918 2.06677 26.2463ZM19.8056 34.3555C16.6495 38.364 10.9131 39.1703 6.81248 36.0833C14.2997 39.8845 20.4046 32.6968 22.8696 26.3845C22.6392 29.2642 21.4182 32.4664 19.8056 34.3555Z" fill="black"/>
<path d="M32.338 31.0847V15.6957H36.2543V17.0549C36.8072 15.903 37.7518 15.3501 39.111 15.3501C40.2629 15.3501 41.2996 15.7417 42.2441 16.525L41.6912 20.0958C40.8388 19.4968 39.9173 19.1974 38.9037 19.1974C37.1298 19.1974 36.2543 20.3031 36.2543 22.5147V31.0847H32.338Z" fill="black"/>
<path d="M51.2978 31.4298C49.0632 31.4298 47.3123 30.7157 46.0453 29.2874C44.7552 27.859 44.1101 25.8778 44.1101 23.3667C44.1101 20.9017 44.7552 18.9435 46.0453 17.4922C47.3354 16.0408 49.0862 15.3267 51.2978 15.3267C53.302 15.3267 54.9377 15.9487 56.2048 17.1697C57.4718 18.4137 58.0938 20.2106 58.0938 22.5604C58.0938 23.551 58.0478 24.3113 57.9787 24.8872H47.9574C48.0265 25.8548 48.3951 26.615 49.0171 27.1679C49.6391 27.7208 50.3993 27.9973 51.2978 27.9973C52.657 27.9973 53.7628 27.4674 54.6152 26.4077L57.0111 28.8496C55.5828 30.5774 53.6706 31.4298 51.2978 31.4298ZM47.9804 21.5928H54.2696C54.1544 20.7174 53.8319 20.0263 53.3021 19.5195C52.7722 19.0127 52.1041 18.7592 51.2978 18.7592C49.3166 18.7823 48.2338 19.7268 47.9804 21.5928Z" fill="black"/>
<path d="M67.1476 37.097L64.982 33.8488C67.1015 33.6875 68.5528 33.388 69.3361 32.9503C70.1194 32.5126 70.488 31.7524 70.488 30.6696V30.2549C69.7047 31.0382 68.5989 31.4298 67.1706 31.4298C65.2585 31.4298 63.738 30.7387 62.5631 29.3334C61.4112 27.9512 60.8123 25.9469 60.8123 23.3667C60.8123 20.9248 61.3882 18.9666 62.5631 17.5152C63.738 16.0639 65.2815 15.3267 67.1706 15.3267C68.5298 15.3267 69.6356 15.7183 70.4419 16.5016V15.6953H74.3583V28.9879C74.3583 31.7293 73.8514 33.7105 72.8378 34.9315C71.8242 36.1525 69.9581 36.8667 67.1476 37.097ZM67.8156 27.6747C68.9905 27.6747 69.889 27.2601 70.488 26.4307V20.3719C69.7969 19.5195 68.8984 19.1048 67.8156 19.1048C66.825 19.1048 66.0648 19.4734 65.5349 20.2106C65.0051 20.9478 64.7286 22.0075 64.7286 23.3898C64.7286 24.7029 64.982 25.7396 65.5119 26.5229C66.0648 27.2831 66.825 27.6747 67.8156 27.6747Z" fill="black"/>
<path d="M85.1168 31.4298C82.8821 31.4298 81.1313 30.7157 79.8642 29.2874C78.5741 27.859 77.9291 25.8778 77.9291 23.3667C77.9291 20.9017 78.5741 18.9435 79.8642 17.4922C81.1543 16.0408 82.9052 15.3267 85.1168 15.3267C87.121 15.3267 88.7567 15.9487 90.0237 17.1697C91.2908 18.4137 91.9128 20.2106 91.9128 22.5604C91.9128 23.551 91.8667 24.3113 91.7976 24.8872H81.7763C81.8454 25.8548 82.214 26.615 82.8361 27.1679C83.4581 27.7208 84.2183 27.9973 85.1168 27.9973C86.476 27.9973 87.5818 27.4674 88.4342 26.4077L90.83 28.8496C89.4017 30.5774 87.4896 31.4298 85.1168 31.4298ZM81.7994 21.5928H88.0886C87.9734 20.7174 87.6509 20.0263 87.121 19.5195C86.5912 19.0127 85.9231 18.7592 85.1168 18.7592C83.1586 18.7823 82.0528 19.7268 81.7994 21.5928Z" fill="black"/>
<path d="M104.814 31.0847V22.653C104.814 21.4089 104.606 20.5105 104.169 19.9346C103.731 19.3817 103.063 19.0822 102.141 19.0822C100.206 19.0822 99.2157 20.234 99.2157 22.5608V31.0386H95.2993V15.6957H99.2157V17.147C100.206 15.9491 101.566 15.3501 103.339 15.3501C104.86 15.3501 106.15 15.8339 107.164 16.7784C108.2 17.723 108.707 19.2665 108.707 21.3859V31.0616H104.814V31.0847Z" fill="black"/>
<path d="M112.854 31.0847V11.1573L116.77 9.36035V17.147C117.761 15.9491 119.12 15.3501 120.894 15.3501C122.414 15.3501 123.704 15.8339 124.718 16.7784C125.755 17.7229 126.262 19.2665 126.262 21.3859V31.0616H122.345V22.5147C122.345 20.2571 121.447 19.1052 119.673 19.1052C117.738 19.1052 116.747 20.211 116.747 22.4456V31.0847H112.854Z" fill="black"/>
<path d="M141.881 29.3108C140.614 30.7391 138.886 31.4533 136.698 31.4533C134.509 31.4533 132.781 30.7391 131.514 29.3108C130.247 27.8825 129.625 25.9243 129.625 23.4132C129.625 20.9252 130.27 18.967 131.537 17.5156C132.804 16.0643 134.532 15.3501 136.698 15.3501C138.863 15.3501 140.591 16.0643 141.858 17.5156C143.125 18.967 143.77 20.9252 143.77 23.4132C143.793 25.9243 143.148 27.8825 141.881 29.3108ZM136.721 27.6751C137.711 27.6751 138.471 27.3065 139.047 26.5463C139.6 25.7861 139.9 24.7494 139.9 23.4132C139.9 22.077 139.623 21.0173 139.047 20.2571C138.495 19.4968 137.711 19.1052 136.721 19.1052C135.753 19.1052 134.993 19.4968 134.417 20.2571C133.841 21.0403 133.565 22.077 133.565 23.3902C133.565 24.7033 133.841 25.763 134.417 26.5233C134.993 27.3065 135.753 27.6751 136.721 27.6751Z" fill="black"/>
<path d="M147.364 31.0847V11.2033L151.28 9.36035V31.0847H147.364Z" fill="black"/>
<path d="M154.805 31.0848V28.0208L162.753 19.1975H155.381V15.6958H167.706V18.6676L159.804 27.5601H167.683V31.0387H154.805V31.0848Z" fill="black"/>
</svg>
