<svg xmlns="http://www.w3.org/2000/svg" xml:space="preserve" viewBox="0 0 164 115">
  <path d="M159.884 17.867c3.4 12.728 3.414 39.301 3.414 39.301s0 26.572-3.414 39.301a20.468 20.468 0 0 1-14.436 14.435c-12.728 3.414-63.79 3.414-63.79 3.414s-51.061 0-63.79-3.414A20.466 20.466 0 0 1 3.433 96.469C.019 83.74.019 57.167.019 57.167s0-26.572 3.414-39.3A20.47 20.47 0 0 1 17.868 3.431C30.597.017 81.658.017 81.658.017s51.062 0 63.79 3.414a20.469 20.469 0 0 1 14.436 14.436ZM65.315 81.659l42.42-24.49-42.42-24.488v48.978Z" fill="currentColor"/>
</svg>
